<?xml version="1.0" encoding="UTF-8"?>
<svg version="1.1" xmlns="http://www.w3.org/2000/svg" width="615" height="406">
<path d="M0 0 C1.01974411 -0.00525696 1.01974411 -0.00525696 2.06008911 -0.01062012 C4.31229801 -0.01943875 6.56419403 -0.01358799 8.81640625 -0.00683594 C10.37817444 -0.00818255 11.93994223 -0.01012306 13.50170898 -0.01263428 C16.77689602 -0.01558571 20.05197406 -0.01128733 23.32714844 -0.00195312 C27.53074316 0.00944149 31.7340825 0.00288211 35.93766785 -0.00909805 C39.16322767 -0.01631617 42.3887267 -0.01402896 45.61428833 -0.00884247 C47.16447988 -0.00750583 48.7146769 -0.00915418 50.26486206 -0.01380157 C52.42932818 -0.01886609 54.59337752 -0.01115804 56.7578125 0 C58.60741577 0.00238678 58.60741577 0.00238678 60.49438477 0.00482178 C63.37890625 0.25878906 63.37890625 0.25878906 65.37890625 2.25878906 C65.62730324 5.05276167 65.62730324 5.05276167 65.62500191 8.70498085 C65.6273096 9.37757289 65.62961728 10.05016493 65.6319949 10.74313855 C65.63733023 13.01917399 65.62828184 15.29493204 65.61941528 17.57095337 C65.62028663 19.2102259 65.6220363 20.84949817 65.62459362 22.48876894 C65.6290851 27.01071035 65.62103887 31.53255779 65.61103749 36.05448723 C65.6024311 40.92429994 65.60532115 45.794107 65.60684204 50.66392517 C65.60789268 59.10697315 65.60159744 67.54999032 65.59036636 75.99303055 C65.57413849 88.20036901 65.56890614 100.40769251 65.56639038 112.61504059 C65.56200901 132.41882458 65.54868793 152.22259213 65.52978516 172.02636719 C65.51143779 191.26822833 65.4972757 210.51008501 65.48876953 229.75195312 C65.48824408 230.93726492 65.48771864 232.12257672 65.48717727 233.34380706 C65.48456726 239.28994205 65.48203983 245.23607707 65.47955346 251.18221211 C65.45880719 300.54108246 65.42356965 349.89993496 65.37890625 399.25878906 C56.09510329 399.42117277 46.81179105 399.5454541 37.52687645 399.62147427 C33.21516034 399.65796583 28.9044176 399.70743791 24.59326172 399.78686523 C20.43050237 399.86307622 16.26867747 399.90481003 12.1052742 399.92292976 C10.51916417 399.93583735 8.9331038 399.96104479 7.34739304 399.99889946 C-5.0868168 400.28385485 -5.0868168 400.28385485 -8.90635103 397.73198581 C-10.44092537 395.96923607 -11.54591423 394.32534149 -12.62109375 392.25878906 C-13.15811417 391.52525208 -13.69513458 390.79171509 -14.24842834 390.03594971 C-14.66281662 389.39953552 -15.0772049 388.76312134 -15.50415039 388.10742188 C-15.99186417 387.36409607 -16.47957794 386.62077026 -16.98207092 385.85491943 C-17.49330002 385.06522766 -18.00452911 384.27553589 -18.53125 383.46191406 C-19.08715317 382.61276428 -19.64305634 381.7636145 -20.21580505 380.88873291 C-21.4149143 379.05660612 -22.61195774 377.22312593 -23.80712891 375.38842773 C-27.04744292 370.4158147 -30.30482422 365.45441414 -33.5625 360.49316406 C-34.23290314 359.47174316 -34.90330627 358.45032227 -35.59402466 357.39794922 C-42.34741925 347.12445409 -49.22582038 336.93735159 -56.12109375 326.75878906 C-65.79456934 312.46566892 -75.39912003 298.12895763 -84.91040039 283.72729492 C-86.20986345 281.75989716 -87.51046869 279.79325329 -88.81225586 277.82739258 C-90.6115517 275.10899005 -92.40616455 272.38756135 -94.19921875 269.66503906 C-94.73625427 268.85470215 -95.27328979 268.04436523 -95.82659912 267.20947266 C-96.31469055 266.46584473 -96.80278198 265.7222168 -97.30566406 264.95605469 C-97.94390106 263.98810974 -97.94390106 263.98810974 -98.59503174 263.00061035 C-99.62109375 261.25878906 -99.62109375 261.25878906 -100.62109375 258.25878906 C-101.28109375 258.25878906 -101.94109375 258.25878906 -102.62109375 258.25878906 C-104.27109375 255.28878906 -105.92109375 252.31878906 -107.62109375 249.25878906 C-108.28109375 249.25878906 -108.94109375 249.25878906 -109.62109375 249.25878906 C-111.29851105 251.53482665 -112.84221512 253.82134721 -114.37109375 256.19628906 C-115.45376917 257.84906397 -116.53716448 259.50136743 -117.62109375 261.15332031 C-118.24242187 262.10416504 -118.86375 263.05500977 -119.50390625 264.03466797 C-123.28328965 269.79003433 -127.11420396 275.51109784 -130.93792725 281.23706055 C-133.33678943 284.83029681 -135.73269606 288.42550274 -138.12890625 292.02050781 C-139.06932198 293.43116165 -140.00975141 294.84180635 -140.95019531 296.25244141 C-141.40027954 296.92756775 -141.85036377 297.60269409 -142.31408691 298.29827881 C-151.12996419 311.52209473 -159.94584147 324.74591064 -168.76171875 337.96972656 C-169.23158203 338.67452148 -169.70144531 339.37931641 -170.18554688 340.10546875 C-173.6640625 345.32324219 -177.14257812 350.54101562 -180.62109375 355.75878906 C-181.11609375 356.50128906 -181.61109375 357.24378906 -182.12109375 358.00878906 C-185.87109375 363.63378906 -185.87109375 363.63378906 -189.62109375 369.25878906 C-190.35271729 370.35622437 -190.35271729 370.35622437 -191.09912109 371.47583008 C-192.58813477 373.70935059 -192.58813477 373.70935059 -194.07714844 375.94287109 C-194.58665039 376.70712402 -195.09615234 377.47137695 -195.62109375 378.25878906 C-197.296875 380.77246094 -197.296875 380.77246094 -198.97265625 383.28613281 C-199.79443359 384.51879883 -199.79443359 384.51879883 -200.6328125 385.77636719 C-202.58284505 388.70141602 -204.5328776 391.62646484 -206.48291016 394.55151367 C-206.85851074 395.11491455 -207.23411133 395.67831543 -207.62109375 396.25878906 C-208.28109375 397.24878906 -208.94109375 398.23878906 -209.62109375 399.25878906 C-212.63296509 399.61955261 -212.63296509 399.61955261 -216.54931641 399.59936523 C-217.26161911 399.59980331 -217.97392181 399.60024139 -218.70780945 399.60069275 C-221.06720187 399.59859916 -223.42588766 399.57524231 -225.78515625 399.55175781 C-227.41897188 399.54616386 -229.05279253 399.54189281 -230.68661499 399.53889465 C-234.99070077 399.52743 -239.29448373 399.49794914 -243.59844971 399.46478271 C-247.98876854 399.43411657 -252.37913622 399.42039673 -256.76953125 399.40527344 C-265.38685785 399.37308077 -274.00393815 399.32186514 -282.62109375 399.25878906 C-282.02157299 395.21023987 -281.57915729 392.6310049 -278.94921875 389.45410156 C-276.70293128 386.63352486 -274.56858084 383.79756793 -272.54296875 380.81347656 C-272.02718262 380.05397705 -271.51139648 379.29447754 -270.97998047 378.51196289 C-270.44904785 377.72716553 -269.91811523 376.94236816 -269.37109375 376.13378906 C-265.47271835 370.40170048 -261.5477449 364.6962139 -257.49609375 359.07128906 C-254.01587946 354.23843804 -250.60892326 349.36156118 -247.24609375 344.44628906 C-242.87368591 338.05536908 -238.4314511 331.71729507 -233.95703125 325.39746094 C-230.29608596 320.22376752 -226.67868178 315.02160578 -223.078125 309.80566406 C-218.23662363 302.80404583 -213.33662355 295.8428992 -208.45166016 288.87158203 C-204.9240678 283.83660025 -201.39909447 278.79978422 -197.87451172 273.76269531 C-194.94804077 269.58085572 -192.01931121 265.4006339 -189.0859375 261.22363281 C-183.34111774 253.03841616 -177.62886987 244.83409942 -171.99609375 236.57128906 C-166.44717965 228.43282593 -160.79646707 220.37135387 -155.09619141 212.33837891 C-143.06631861 195.37868733 -131.08980536 178.38180232 -119.37963867 161.19946289 C-115.31468536 155.24541807 -111.17504176 149.3477642 -107.00390625 143.46777344 C-103.62445521 138.69809849 -100.29641581 133.89600124 -96.99609375 129.07128906 C-93.63330338 124.15598263 -90.22608674 119.27930109 -86.74609375 114.44628906 C-82.82842947 109.00264907 -79.02174914 103.48926067 -75.24609375 97.94628906 C-70.14709419 90.4621894 -64.96607334 83.04228533 -59.73046875 75.65332031 C-51.59837395 64.17471674 -43.55739168 52.6313607 -35.55859375 41.05957031 C-31.82536356 35.66294523 -28.07679434 30.2782134 -24.24609375 24.95019531 C-23.39180357 23.76148198 -22.53763912 22.57267829 -21.68359375 21.38378906 C-21.26021729 20.7944458 -20.83684082 20.20510254 -20.40063477 19.59790039 C-16.88020511 14.67334148 -13.52272448 9.65719026 -10.21484375 4.58691406 C-7.07481594 0.00001069 -5.46811357 0.00705621 0 0 Z M-11.62109375 115.25878906 C-12.90016221 116.97922622 -14.09320366 118.76386974 -15.24609375 120.57128906 C-17.81852057 124.54104044 -20.43720104 128.45104442 -23.24609375 132.25878906 C-27.03359179 137.41275698 -30.70920301 142.63992984 -34.37109375 147.88378906 C-38.85904123 154.30903187 -43.35215156 160.73029536 -47.87109375 167.13378906 C-48.35521729 167.82126221 -48.83934082 168.50873535 -49.33813477 169.21704102 C-51.71897997 172.59195252 -54.11829827 175.9510554 -56.5546875 179.28613281 C-57.01907227 179.92502441 -57.48345703 180.56391602 -57.96191406 181.22216797 C-58.83220948 182.41716752 -59.70753068 183.60853021 -60.58886719 184.79541016 C-62.61266487 187.57918867 -64.17837061 189.82239484 -64.62109375 193.25878906 C-63.95375183 195.21019646 -63.95375183 195.21019646 -62.734375 197.10253906 C-62.29714111 197.84310547 -61.85990723 198.58367187 -61.40942383 199.34667969 C-60.9223999 200.14267578 -60.43537598 200.93867188 -59.93359375 201.75878906 C-59.43174561 202.60119141 -58.92989746 203.44359375 -58.4128418 204.31152344 C-56.827067 206.96769006 -55.22481792 209.61343032 -53.62109375 212.25878906 C-52.67202202 213.8414303 -51.72406906 215.42474309 -50.77734375 217.00878906 C-48.82961289 220.26466719 -46.87554163 223.51663234 -44.91796875 226.76660156 C-41.49173531 232.46371066 -38.0984228 238.18014177 -34.71063232 243.900177 C-33.68886209 245.62489625 -32.66596709 247.348949 -31.64306641 249.07299805 C-28.34505954 254.63645081 -25.06325213 260.20827397 -21.81640625 265.80175781 C-21.22335693 266.81898926 -20.63030762 267.8362207 -20.01928711 268.88427734 C-18.90502241 270.79730779 -17.79617606 272.7135078 -16.69360352 274.63330078 C-16.19916748 275.48037598 -15.70473145 276.32745117 -15.1953125 277.20019531 C-14.76822998 277.93955322 -14.34114746 278.67891113 -13.90112305 279.44067383 C-12.58350014 281.54458732 -12.58350014 281.54458732 -9.62109375 283.25878906 C-9.62109375 227.81878906 -9.62109375 172.37878906 -9.62109375 115.25878906 C-10.28109375 115.25878906 -10.94109375 115.25878906 -11.62109375 115.25878906 Z " fill="#D0D0D0" transform="translate(288.62109375,3.7412109375)"/>
<path d="M0 0 C1.01037071 -0.00065712 1.01037071 -0.00065712 2.04115295 -0.00132751 C4.25983011 0.00075671 6.4777445 0.02406918 8.69628906 0.04760742 C10.23756497 0.05320471 11.77884623 0.05747418 13.32012939 0.06047058 C17.37102062 0.07190899 21.42158767 0.10136728 25.47235107 0.13458252 C29.60815038 0.16530519 33.74400221 0.1789806 37.87988281 0.1940918 C45.99070844 0.22623817 54.10127089 0.27742211 62.21191406 0.34057617 C62.78613281 2.73193359 62.78613281 2.73193359 63.21191406 5.34057617 C62.02441406 7.07885742 62.02441406 7.07885742 60.21191406 8.65307617 C57.57334326 11.0674206 55.14917941 13.48536614 52.83691406 16.21557617 C50.24557201 19.22525147 47.53936624 22.05146233 44.71191406 24.84057617 C41.92570266 27.58913607 39.25883014 30.36917408 36.71191406 33.34057617 C33.5318675 37.05063049 30.12429605 40.47035484 26.61816406 43.87182617 C24.70364704 45.83607091 22.92848252 47.82073314 21.14941406 49.90307617 C15.82714173 56.03712366 9.9594099 61.65002091 4.18212891 67.34985352 C-1.157796 72.62463648 -6.41028911 77.90828097 -11.29003906 83.61987305 C-13.50246917 86.16113892 -15.87716669 88.48638444 -18.28808594 90.84057617 C-22.03114484 94.52768312 -25.57064708 98.31580974 -28.97949219 102.31323242 C-31.96336598 105.65800671 -35.19428326 108.75392775 -38.38183594 111.90307617 C-40.44257939 113.99058252 -42.3832422 116.1122684 -44.28808594 118.34057617 C-47.77141135 122.41540968 -51.56627302 126.13350609 -55.37792969 129.89916992 C-58.05663126 132.61260344 -60.53416712 135.4483464 -63.01074219 138.34448242 C-65.0207737 140.60190243 -67.13641547 142.7179333 -69.28808594 144.84057617 C-72.03309136 147.54861182 -74.66079504 150.28226866 -77.16308594 153.21557617 C-80.48919901 157.09861981 -84.09095125 160.67325335 -87.72753906 164.26049805 C-91.0907707 167.59581905 -94.23962874 171.05375704 -97.31933594 174.64916992 C-100.05378015 177.79814424 -103.04672351 180.66717197 -106.13183594 183.46948242 C-106.96714844 184.25194336 -107.80246094 185.0344043 -108.66308594 185.84057617 C-109.46488281 186.57276367 -110.26667969 187.30495117 -111.09277344 188.05932617 C-113.00391957 190.18698113 -113.00391957 190.18698113 -112.89746094 192.72729492 C-111.35474853 196.36136041 -108.8876494 198.87616445 -106.16308594 201.65307617 C-105.05818048 202.81252883 -103.95400955 203.97268193 -102.85058594 205.13354492 C-102.31820312 205.6883252 -101.78582031 206.24310547 -101.23730469 206.81469727 C-99.49132308 208.65303706 -97.81753626 210.54466389 -96.16308594 212.46557617 C-93.47041654 215.58305992 -90.70149698 218.62089299 -87.91308594 221.65307617 C-83.76882629 226.19232577 -79.86230196 230.87515913 -76.00292969 235.65698242 C-73.12736236 239.14113543 -70.09041963 242.46136382 -67.04589844 245.79760742 C-64.66576281 248.47834841 -62.41076753 251.23561752 -60.16308594 254.02807617 C-57.65835363 257.1264907 -55.15417484 260.07354565 -52.28808594 262.84057617 C-48.56588381 266.4344265 -45.41485302 270.42326971 -42.17480469 274.44995117 C-39.79438112 277.33295189 -37.32128812 280.0913645 -34.78808594 282.84057617 C-31.57118075 286.33377997 -28.50172232 289.88054248 -25.53808594 293.59057617 C-21.2564314 298.90468641 -16.6334304 303.83214443 -11.94799805 308.78613281 C-7.74515002 313.25283167 -3.82312597 317.87090638 0.00488281 322.66479492 C2.4717011 325.65553921 5.07159987 328.50421252 7.71191406 331.34057617 C11.99039216 335.93849819 15.99859929 340.68974182 19.93066406 345.59057617 C23.24368868 349.58435927 26.78234466 353.3506068 30.34082031 357.12573242 C32.21191406 359.34057617 32.21191406 359.34057617 32.21191406 361.34057617 C33.20191406 361.67057617 34.19191406 362.00057617 35.21191406 362.34057617 C36.61425781 363.69604492 36.61425781 363.69604492 38.14941406 365.52807617 C38.75914062 366.24737305 39.36886719 366.96666992 39.99707031 367.70776367 C40.72796875 368.5765918 41.45886719 369.44541992 42.21191406 370.34057617 C43.14670209 371.42772756 44.08300059 372.51358132 45.02050781 373.59838867 C47.60053691 376.58506861 50.16429646 379.58512674 52.72070312 382.59204102 C54.13495649 384.25033876 55.55970559 385.89910777 56.98535156 387.54760742 C57.80261719 388.51053711 58.61988281 389.4734668 59.46191406 390.46557617 C60.18894531 391.3137793 60.91597656 392.16198242 61.66503906 393.03588867 C63.21191406 395.34057617 63.21191406 395.34057617 63.21191406 399.34057617 C60.39572336 400.74867152 57.95859506 400.56007297 54.80957031 400.65698242 C54.15207291 400.67799011 53.4945755 400.6989978 52.81715393 400.72064209 C50.63637131 400.78773577 48.45549291 400.84646355 46.27441406 400.90307617 C45.15700836 400.93285049 45.15700836 400.93285049 44.01702881 400.96322632 C39.24200821 401.08775943 34.46677674 401.19453386 29.69110107 401.29052734 C28.03567988 401.32394632 26.38028352 401.35861827 24.72491455 401.39453125 C19.86796436 401.4990254 15.01163845 401.57978439 10.15377808 401.62667847 C8.61374815 401.64422514 7.07377991 401.66853848 5.53396606 401.69973755 C3.37682287 401.74141652 1.22097041 401.75721543 -0.93652344 401.76635742 C-2.1654834 401.78093994 -3.39444336 401.79552246 -4.66064453 401.81054688 C-8.37224967 401.252792 -9.56409429 400.30969829 -11.78808594 397.34057617 C-11.78808594 396.68057617 -11.78808594 396.02057617 -11.78808594 395.34057617 C-12.44808594 395.34057617 -13.10808594 395.34057617 -13.78808594 395.34057617 C-15.09277344 394.08276367 -15.09277344 394.08276367 -16.66308594 392.21557617 C-17.28699219 391.48209961 -17.91089844 390.74862305 -18.55371094 389.99291992 C-19.29105469 389.11764648 -20.02839844 388.24237305 -20.78808594 387.34057617 C-22.15896213 385.73586293 -23.53323546 384.13409845 -24.90771484 382.5324707 C-25.92637823 381.34529666 -26.94426011 380.15745167 -27.96142578 378.96899414 C-32.26227451 373.94448951 -36.59097202 368.94460476 -40.92895508 363.95214844 C-43.58488371 360.89285782 -46.23147959 357.82659713 -48.85449219 354.73901367 C-54.26871438 348.36897876 -59.78327709 342.13751082 -65.49267578 336.03027344 C-69.40376814 331.82105205 -73.04508502 327.43411425 -76.64355469 322.95385742 C-79.48859897 319.48694554 -82.50786343 316.19555868 -85.53027344 312.88354492 C-87.91040906 310.20280393 -90.16540435 307.44553483 -92.41308594 304.65307617 C-94.91781824 301.55466164 -97.42199704 298.6076067 -100.28808594 295.84057617 C-104.03205794 292.22600413 -107.20822132 288.21437408 -110.46777344 284.16479492 C-112.67137 281.48263951 -114.94852419 278.90431196 -117.28808594 276.34057617 C-120.34562785 272.98731345 -123.25896345 269.56602417 -126.10058594 266.02807617 C-130.51347294 260.57186212 -135.23279621 255.45442167 -140.01464844 250.32495117 C-143.35945894 246.73659735 -146.59410812 243.06357723 -149.78808594 239.34057617 C-150.20493652 238.85540527 -150.62178711 238.37023437 -151.05126953 237.87036133 C-155.68142866 232.48057929 -160.30273574 227.08324973 -164.91308594 221.67651367 C-169.44335761 216.36904937 -173.98551461 211.08209569 -178.66308594 205.90307617 C-179.36949219 205.11545898 -180.07589844 204.3278418 -180.80371094 203.51635742 C-182.08106553 202.11579343 -183.38178817 200.73601353 -184.70996094 199.38354492 C-185.55300781 198.49602539 -185.55300781 198.49602539 -186.41308594 197.59057617 C-187.14398438 196.85581055 -187.14398438 196.85581055 -187.88964844 196.10620117 C-189.34839523 193.23944661 -188.63187158 191.39290681 -187.78808594 188.34057617 C-185.99446909 186.13273758 -184.29598803 184.28596156 -182.24902344 182.34838867 C-181.41040268 181.52393753 -181.41040268 181.52393753 -180.55484009 180.68283081 C-178.76905887 178.93151754 -176.96705092 177.19813521 -175.16308594 175.46557617 C-172.81214276 173.18119932 -170.4677569 170.89015907 -168.12402344 168.59838867 C-167.5596759 168.04890564 -166.99532837 167.49942261 -166.41387939 166.93328857 C-162.83588435 163.43134497 -159.45816768 159.82607861 -156.22021484 156.00415039 C-154.04052386 153.47220113 -151.6785069 151.17475194 -149.28808594 148.84057617 C-146.17004968 145.76907777 -143.1291451 142.67335711 -140.28808594 139.34057617 C-137.00507814 135.48935548 -133.43404082 131.95768757 -129.83496094 128.40698242 C-127.20785035 125.80152385 -124.6881551 123.15604192 -122.28808594 120.34057617 C-119.44685793 117.00759716 -116.40386971 113.91448816 -113.28808594 110.84057617 C-110.19317092 107.78719666 -107.16874317 104.71733932 -104.35058594 101.40307617 C-100.78800826 97.21639729 -96.89249043 93.38954 -92.9621582 89.55175781 C-90.82380456 87.44954731 -88.8322659 85.40067684 -87.05371094 82.98120117 C-86.63605469 82.43979492 -86.21839844 81.89838867 -85.78808594 81.34057617 C-85.12808594 81.34057617 -84.46808594 81.34057617 -83.78808594 81.34057617 C-83.5833667 80.80916016 -83.37864746 80.27774414 -83.16772461 79.73022461 C-81.21184328 76.34247617 -78.49001955 73.81794987 -75.71386719 71.10620117 C-75.11180954 70.50934509 -74.50975189 69.91248901 -73.88945007 69.29754639 C-71.96452679 67.39040052 -70.03307247 65.49005551 -68.10058594 63.59057617 C-65.57245502 61.09919599 -63.0475363 58.60462634 -60.52636719 56.10620117 C-59.6199498 55.20816772 -59.6199498 55.20816772 -58.69522095 54.29199219 C-55.03296048 50.64225433 -51.53149534 46.91089701 -48.18725586 42.96459961 C-46.01842981 40.4472325 -43.66547682 38.16202845 -41.28808594 35.84057617 C-38.17004968 32.76907777 -35.1291451 29.67335711 -32.28808594 26.34057617 C-29.01020708 22.49537212 -25.44688209 18.96674661 -21.8503418 15.42456055 C-18.48606695 12.09232641 -15.34293092 8.64207702 -12.32324219 4.99682617 C-8.3884288 0.7516331 -5.83853115 -0.03196276 0 0 Z " fill="#D0D0D0" transform="translate(546.7880859375,3.659423828125)"/>
<path d="M0 0 C0.33 0.99 0.66 1.98 1 3 C1.66 3.33 2.32 3.66 3 4 C1.824375 4.4640625 1.824375 4.4640625 0.625 4.9375 C-1.92330128 5.92875038 -1.92330128 5.92875038 -4 7 C-2.92598892 4.08482708 -2.22189824 2.22189824 0 0 Z " fill="#DBDBDB" transform="translate(115,243)"/>
<path d="" fill="#FFFFFF" transform="translate(0,0)"/>
<path d="" fill="#FFFFFF" transform="translate(0,0)"/>
<path d="" fill="#FFFFFF" transform="translate(0,0)"/>
<path d="" fill="#FFFFFF" transform="translate(0,0)"/>
<path d="" fill="#FFFFFF" transform="translate(0,0)"/>
<path d="" fill="#FFFFFF" transform="translate(0,0)"/>
<path d="" fill="#FFFFFF" transform="translate(0,0)"/>
<path d="" fill="#FFFFFF" transform="translate(0,0)"/>
<path d="" fill="#FFFFFF" transform="translate(0,0)"/>
<path d="" fill="#FFFFFF" transform="translate(0,0)"/>
<path d="" fill="#FFFFFF" transform="translate(0,0)"/>
<path d="" fill="#FFFFFF" transform="translate(0,0)"/>
<path d="" fill="#FFFFFF" transform="translate(0,0)"/>
<path d="" fill="#FFFFFF" transform="translate(0,0)"/>
<path d="" fill="#FFFFFF" transform="translate(0,0)"/>
<path d="" fill="#FFFFFF" transform="translate(0,0)"/>
<path d="" fill="#FFFFFF" transform="translate(0,0)"/>
<path d="" fill="#FFFFFF" transform="translate(0,0)"/>
<path d="" fill="#FFFFFF" transform="translate(0,0)"/>
<path d="" fill="#FFFFFF" transform="translate(0,0)"/>
<path d="" fill="#FFFFFF" transform="translate(0,0)"/>
<path d="" fill="#FFFFFF" transform="translate(0,0)"/>
<path d="" fill="#FFFFFF" transform="translate(0,0)"/>
<path d="" fill="#FFFFFF" transform="translate(0,0)"/>
<path d="" fill="#FFFFFF" transform="translate(0,0)"/>
<path d="" fill="#FFFFFF" transform="translate(0,0)"/>
<path d="" fill="#FFFFFF" transform="translate(0,0)"/>
<path d="" fill="#FFFFFF" transform="translate(0,0)"/>
<path d="" fill="#FFFFFF" transform="translate(0,0)"/>
<path d="" fill="#FFFFFF" transform="translate(0,0)"/>
<path d="" fill="#FFFFFF" transform="translate(0,0)"/>
<path d="" fill="#FFFFFF" transform="translate(0,0)"/>
<path d="" fill="#FFFFFF" transform="translate(0,0)"/>
<path d="" fill="#FFFFFF" transform="translate(0,0)"/>
<path d="" fill="#FFFFFF" transform="translate(0,0)"/>
<path d="" fill="#FFFFFF" transform="translate(0,0)"/>
<path d="" fill="#FFFFFF" transform="translate(0,0)"/>
<path d="" fill="#FFFFFF" transform="translate(0,0)"/>
<path d="" fill="#FFFFFF" transform="translate(0,0)"/>
<path d="" fill="#FFFFFF" transform="translate(0,0)"/>
<path d="" fill="#FFFFFF" transform="translate(0,0)"/>
<path d="" fill="#FFFFFF" transform="translate(0,0)"/>
<path d="" fill="#FFFFFF" transform="translate(0,0)"/>
<path d="" fill="#FFFFFF" transform="translate(0,0)"/>
<path d="" fill="#FFFFFF" transform="translate(0,0)"/>
<path d="" fill="#FFFFFF" transform="translate(0,0)"/>
<path d="" fill="#FFFFFF" transform="translate(0,0)"/>
<path d="" fill="#FFFFFF" transform="translate(0,0)"/>
<path d="" fill="#FFFFFF" transform="translate(0,0)"/>
<path d="" fill="#FFFFFF" transform="translate(0,0)"/>
<path d="" fill="#FFFFFF" transform="translate(0,0)"/>
<path d="" fill="#FFFFFF" transform="translate(0,0)"/>
<path d="" fill="#FFFFFF" transform="translate(0,0)"/>
<path d="" fill="#FFFFFF" transform="translate(0,0)"/>
<path d="" fill="#FFFFFF" transform="translate(0,0)"/>
<path d="" fill="#FFFFFF" transform="translate(0,0)"/>
<path d="" fill="#FFFFFF" transform="translate(0,0)"/>
<path d="" fill="#FFFFFF" transform="translate(0,0)"/>
<path d="" fill="#FFFFFF" transform="translate(0,0)"/>
<path d="" fill="#FFFFFF" transform="translate(0,0)"/>
<path d="" fill="#FFFFFF" transform="translate(0,0)"/>
<path d="" fill="#FFFFFF" transform="translate(0,0)"/>
<path d="" fill="#FFFFFF" transform="translate(0,0)"/>
<path d="" fill="#FFFFFF" transform="translate(0,0)"/>
<path d="" fill="#FFFFFF" transform="translate(0,0)"/>
<path d="" fill="#FFFFFF" transform="translate(0,0)"/>
<path d="" fill="#FFFFFF" transform="translate(0,0)"/>
<path d="" fill="#FFFFFF" transform="translate(0,0)"/>
<path d="" fill="#FFFFFF" transform="translate(0,0)"/>
<path d="" fill="#FFFFFF" transform="translate(0,0)"/>
<path d="" fill="#FFFFFF" transform="translate(0,0)"/>
<path d="" fill="#FFFFFF" transform="translate(0,0)"/>
</svg>
